<svg width="608" height="135" viewBox="0 0 608 135" fill="none" xmlns="http://www.w3.org/2000/svg">
<g clip-path="url(#clip0_14_2)">
<g clip-path="url(#clip1_14_2)">
<path d="M1.13084e-05 34.6619C1.26675e-05 26.889 8.47972 22.0878 15.145 26.087L40.2899 41.174C46.314 44.7884 50 51.2986 50 58.3238V75.6762C50 82.7015 46.314 89.2116 40.2899 92.8261L15.1449 107.913C8.47969 111.912 -1.359e-06 107.111 0 99.3381L1.13084e-05 34.6619Z" fill="#FA776C"/>
<path d="M103.855 7.00002C109.151 7.00002 111.85 13.362 108.169 17.1701L94.8962 30.9004C91.1279 34.7987 85.9383 37 80.5165 37H55.5397C51.9148 37 48.3581 36.0148 45.2498 34.1498L18.5749 18.1449C13.3568 15.0141 15.5766 7 21.6619 7L103.855 7.00002Z" fill="#624CF5"/>
<path d="M103.855 127C109.151 127 111.85 120.638 108.169 116.83L94.8962 103.1C91.1279 99.2013 85.9384 97 80.5165 97H55.5397C51.9148 97 48.3581 97.9851 45.2498 99.8501L18.5749 115.855C13.3568 118.986 15.5766 127 21.6619 127H103.855Z" fill="#624CF5"/>
<path d="M86 67C86 58.7157 79.2843 52 71 52C62.7157 52 56 58.7157 56 67C56 75.2843 62.7157 82 71 82C79.2843 82 86 75.2843 86 67Z" fill="#FA776C"/>
</g>
<path d="M142.97 48.15V60.93H163.58V72.81H142.97V86.67H166.28V99H127.58V35.82H166.28V48.15H142.97ZM198.861 84.6L209.751 48.78H226.131L208.311 99H189.321L171.501 48.78H187.971L198.861 84.6ZM279.949 73.08C279.949 74.52 279.859 76.02 279.679 77.58H244.849C245.089 80.7 246.079 83.1 247.819 84.78C249.619 86.4 251.809 87.21 254.389 87.21C258.229 87.21 260.899 85.59 262.399 82.35H278.779C277.939 85.65 276.409 88.62 274.189 91.26C272.029 93.9 269.299 95.97 265.999 97.47C262.699 98.97 259.009 99.72 254.929 99.72C250.009 99.72 245.629 98.67 241.789 96.57C237.949 94.47 234.949 91.47 232.789 87.57C230.629 83.67 229.549 79.11 229.549 73.89C229.549 68.67 230.599 64.11 232.699 60.21C234.859 56.31 237.859 53.31 241.699 51.21C245.539 49.11 249.949 48.06 254.929 48.06C259.789 48.06 264.109 49.08 267.889 51.12C271.669 53.16 274.609 56.07 276.709 59.85C278.869 63.63 279.949 68.04 279.949 73.08ZM264.199 69.03C264.199 66.39 263.299 64.29 261.499 62.73C259.699 61.17 257.449 60.39 254.749 60.39C252.169 60.39 249.979 61.14 248.179 62.64C246.439 64.14 245.359 66.27 244.939 69.03H264.199ZM318.668 48.24C324.548 48.24 329.228 50.16 332.708 54C336.248 57.78 338.018 63 338.018 69.66V99H322.718V71.73C322.718 68.37 321.848 65.76 320.108 63.9C318.368 62.04 316.028 61.11 313.088 61.11C310.148 61.11 307.808 62.04 306.068 63.9C304.328 65.76 303.458 68.37 303.458 71.73V99H288.068V48.78H303.458V55.44C305.018 53.22 307.118 51.48 309.758 50.22C312.398 48.9 315.368 48.24 318.668 48.24ZM376.703 85.95V99H368.873C363.293 99 358.943 97.65 355.823 94.95C352.703 92.19 351.143 87.72 351.143 81.54V61.56H345.023V48.78H351.143V36.54H366.533V48.78H376.613V61.56H366.533V81.72C366.533 83.22 366.893 84.3 367.613 84.96C368.333 85.62 369.533 85.95 371.213 85.95H376.703ZM408.135 99.63C403.515 99.63 399.375 98.88 395.715 97.38C392.055 95.88 389.115 93.66 386.895 90.72C384.735 87.78 383.595 84.24 383.475 80.1H399.855C400.095 82.44 400.905 84.24 402.285 85.5C403.665 86.7 405.465 87.3 407.685 87.3C409.965 87.3 411.765 86.79 413.085 85.77C414.405 84.69 415.065 83.22 415.065 81.36C415.065 79.8 414.525 78.51 413.445 77.49C412.425 76.47 411.135 75.63 409.575 74.97C408.075 74.31 405.915 73.56 403.095 72.72C399.015 71.46 395.685 70.2 393.105 68.94C390.525 67.68 388.305 65.82 386.445 63.36C384.585 60.9 383.655 57.69 383.655 53.73C383.655 47.85 385.785 43.26 390.045 39.96C394.305 36.6 399.855 34.92 406.695 34.92C413.655 34.92 419.265 36.6 423.525 39.96C427.785 43.26 430.065 47.88 430.365 53.82H413.715C413.595 51.78 412.845 50.19 411.465 49.05C410.085 47.85 408.315 47.25 406.155 47.25C404.295 47.25 402.795 47.76 401.655 48.78C400.515 49.74 399.945 51.15 399.945 53.01C399.945 55.05 400.905 56.64 402.825 57.78C404.745 58.92 407.745 60.15 411.825 61.47C415.905 62.85 419.205 64.17 421.725 65.43C424.305 66.69 426.525 68.52 428.385 70.92C430.245 73.32 431.175 76.41 431.175 80.19C431.175 83.79 430.245 87.06 428.385 90C426.585 92.94 423.945 95.28 420.465 97.02C416.985 98.76 412.875 99.63 408.135 99.63ZM491.946 48.78L460.446 122.85H443.886L455.406 97.29L434.976 48.78H452.166L463.776 80.19L475.296 48.78H491.946ZM528.112 48.24C533.992 48.24 538.672 50.16 542.152 54C545.692 57.78 547.462 63 547.462 69.66V99H532.162V71.73C532.162 68.37 531.292 65.76 529.552 63.9C527.812 62.04 525.472 61.11 522.532 61.11C519.592 61.11 517.252 62.04 515.512 63.9C513.772 65.76 512.902 68.37 512.902 71.73V99H497.512V48.78H512.902V55.44C514.462 53.22 516.562 51.48 519.202 50.22C521.842 48.9 524.812 48.24 528.112 48.24ZM555.096 73.89C555.096 68.67 556.146 64.11 558.246 60.21C560.406 56.31 563.376 53.31 567.156 51.21C570.996 49.11 575.376 48.06 580.296 48.06C586.596 48.06 591.846 49.71 596.046 53.01C600.306 56.31 603.096 60.96 604.416 66.96H588.036C586.656 63.12 583.986 61.2 580.026 61.2C577.206 61.2 574.956 62.31 573.276 64.53C571.596 66.69 570.756 69.81 570.756 73.89C570.756 77.97 571.596 81.12 573.276 83.34C574.956 85.5 577.206 86.58 580.026 86.58C583.986 86.58 586.656 84.66 588.036 80.82H604.416C603.096 86.7 600.306 91.32 596.046 94.68C591.786 98.04 586.536 99.72 580.296 99.72C575.376 99.72 570.996 98.67 567.156 96.57C563.376 94.47 560.406 91.47 558.246 87.57C556.146 83.67 555.096 79.11 555.096 73.89Z" fill="black"/>
</g>
<defs>
<clipPath id="clip0_14_2">
<rect width="608" height="135" fill="white"/>
</clipPath>
<clipPath id="clip1_14_2">
<rect width="518" height="120" fill="white" transform="translate(0 7)"/>
</clipPath>
</defs>
</svg>
